<?xml version="1.0" standalone="no"?>
<!DOCTYPE svg PUBLIC "-//W3C//DTD SVG 20010904//EN"
 "http://www.w3.org/TR/2001/REC-SVG-20010904/DTD/svg10.dtd">
<svg version="1.0" xmlns="http://www.w3.org/2000/svg"
 width="300.000000pt" height="134.000000pt" viewBox="0 0 300.000000 134.000000"
 preserveAspectRatio="xMidYMid meet">
<metadata>
Created by potrace 1.10, written by Peter Selinger 2001-2011
</metadata>
<g transform="translate(0.000000,134.000000) scale(0.100000,-0.100000)"
fill="#000000" stroke="none">
<path d="M295 1202 c-33 -11 -68 -34 -102 -67 -82 -79 -85 -99 -81 -492 3
-366 4 -373 75 -445 109 -112 325 -111 427 2 52 58 67 109 64 220 l-3 95 -92
3 c-103 3 -110 -2 -99 -74 18 -109 -60 -180 -131 -120 l-28 24 0 317 0 317 28
24 c36 31 71 31 102 -1 22 -21 25 -33 25 -93 0 -55 3 -71 16 -76 24 -9 157 -7
173 3 22 14 9 163 -19 229 -54 126 -206 183 -355 134z m198 -23 c43 -12 98
-56 125 -102 21 -35 44 -140 38 -172 -3 -11 -5 -26 -5 -33 -1 -10 -19 -12 -68
-10 l-68 3 -10 64 c-13 81 -45 121 -99 121 -25 0 -45 -8 -68 -29 l-33 -29 -3
-308 c-2 -219 1 -316 9 -336 34 -82 140 -91 181 -15 6 12 14 51 17 87 6 63 7
65 36 70 17 3 48 3 70 0 l40 -5 -1 -85 c0 -66 -5 -94 -21 -125 -44 -83 -114
-126 -218 -133 -59 -3 -79 0 -125 20 -30 14 -70 40 -87 58 -63 64 -65 78 -61
461 3 380 2 371 70 438 32 32 74 55 113 64 38 9 130 7 168 -4z"/>
<path d="M847 1193 c-10 -9 -8 -1036 1 -1051 6 -9 34 -12 103 -10 l94 3 3 130
3 130 67 0 c37 0 89 6 115 14 64 19 138 86 166 152 21 48 22 63 19 253 -2 169
-6 206 -21 233 -31 57 -80 105 -132 129 -47 22 -63 24 -231 24 -99 0 -184 -3
-187 -7z m367 -24 c67 -17 139 -84 165 -155 18 -47 21 -78 21 -220 0 -164 0
-167 -30 -230 -47 -98 -127 -144 -251 -144 -45 0 -60 -4 -77 -23 -20 -22 -22
-34 -21 -127 1 -66 -3 -105 -10 -109 -12 -8 -106 -5 -128 3 -10 4 -13 106 -13
504 0 274 3 501 6 504 11 11 292 9 338 -3z"/>
<path d="M1036 1007 c-12 -18 -15 -61 -15 -206 -1 -226 5 -241 87 -241 57 0
100 24 118 65 20 49 20 305 -1 345 -23 45 -53 60 -117 60 -49 0 -60 -3 -72
-23z m149 -22 c25 -24 25 -27 25 -188 0 -150 -2 -165 -20 -185 -12 -12 -26
-22 -33 -23 -7 0 -33 -3 -59 -5 l-48 -5 0 215 0 216 55 0 c46 0 60 -4 80 -25z"/>
<path d="M1575 1188 c-3 -7 -4 -247 -3 -533 l3 -520 100 0 100 0 3 208 2 208
23 -7 c66 -20 96 -46 118 -99 7 -16 15 -93 18 -170 l6 -140 88 -3 c124 -4 121
-8 114 158 -7 154 -25 228 -69 283 l-30 38 40 43 c53 57 66 102 66 216 0 158
-47 250 -156 304 -50 25 -58 26 -235 26 -138 0 -185 -3 -188 -12z m399 -32
c59 -28 106 -74 132 -131 15 -32 19 -64 19 -155 0 -123 -7 -145 -77 -232 l-21
-27 31 -48 c46 -73 63 -154 60 -286 l-3 -112 -75 0 -75 0 -5 135 c-5 124 -7
139 -32 181 -39 66 -126 102 -157 66 -6 -9 -12 -83 -13 -198 l-3 -184 -77 -3
-78 -3 0 504 c0 277 3 507 7 510 3 4 76 7 161 7 143 0 159 -2 206 -24z"/>
<path d="M1810 1032 c-44 -6 -50 -26 -50 -170 0 -73 5 -142 10 -153 9 -15 22
-19 70 -19 51 0 64 4 91 28 l32 28 0 112 c1 96 -2 114 -18 132 -34 38 -75 51
-135 42z m105 -47 c23 -22 25 -31 25 -129 0 -101 -1 -105 -26 -125 -20 -15
-41 -21 -80 -21 l-54 0 0 150 0 150 55 0 c46 0 60 -4 80 -25z"/>
<path d="M2332 668 l3 -533 94 -3 c69 -2 97 1 103 10 5 7 8 67 7 133 l-2 119
41 -3 c61 -4 151 17 197 46 50 33 79 66 108 123 20 42 22 58 22 240 0 160 -3
202 -17 231 -25 56 -88 120 -143 145 -47 22 -62 24 -233 24 l-182 0 2 -532z
m402 488 c52 -26 98 -74 125 -128 19 -40 21 -61 21 -229 0 -179 -1 -187 -26
-237 -47 -94 -132 -142 -250 -142 -86 0 -94 -12 -94 -147 0 -56 -4 -105 -10
-108 -14 -9 -124 -10 -138 -1 -12 7 -18 943 -6 992 l6 25 167 -3 c140 -3 172
-6 205 -22z"/>
<path d="M2556 1029 c-16 -5 -33 -14 -37 -21 -5 -7 -9 -101 -9 -208 0 -230 3
-240 76 -240 56 0 99 22 119 60 21 41 22 318 0 359 -21 41 -93 65 -149 50z
m115 -45 c23 -24 24 -33 27 -174 4 -177 -4 -203 -69 -220 -22 -6 -52 -10 -65
-8 l-25 3 -2 213 -2 212 56 0 c47 0 59 -4 80 -26z"/>
</g>
</svg>
